<svg width="200" height="200" viewBox="0 0 200 200" fill="none" xmlns="http://www.w3.org/2000/svg">
  <!-- Background Circle -->
  <circle cx="100" cy="100" r="95" fill="#1e40af" opacity="0.1"/>
  
  <!-- Building Icon -->
  <g transform="translate(50, 40)">
    <!-- Main Building -->
    <rect x="20" y="30" width="60" height="90" fill="#1e40af" rx="2"/>
    
    <!-- Windows Row 1 -->
    <rect x="28" y="40" width="12" height="12" fill="#60a5fa" rx="1"/>
    <rect x="48" y="40" width="12" height="12" fill="#60a5fa" rx="1"/>
    <rect x="68" y="40" width="12" height="12" fill="#60a5fa" rx="1"/>
    
    <!-- Windows Row 2 -->
    <rect x="28" y="58" width="12" height="12" fill="#60a5fa" rx="1"/>
    <rect x="48" y="58" width="12" height="12" fill="#60a5fa" rx="1"/>
    <rect x="68" y="58" width="12" height="12" fill="#60a5fa" rx="1"/>
    
    <!-- Windows Row 3 -->
    <rect x="28" y="76" width="12" height="12" fill="#60a5fa" rx="1"/>
    <rect x="48" y="76" width="12" height="12" fill="#60a5fa" rx="1"/>
    <rect x="68" y="76" width="12" height="12" fill="#60a5fa" rx="1"/>
    
    <!-- Windows Row 4 -->
    <rect x="28" y="94" width="12" height="12" fill="#60a5fa" rx="1"/>
    <rect x="48" y="94" width="12" height="12" fill="#60a5fa" rx="1"/>
    <rect x="68" y="94" width="12" height="12" fill="#60a5fa" rx="1"/>
    
    <!-- Door -->
    <rect x="44" y="108" width="20" height="12" fill="#3b82f6" rx="1"/>
    
    <!-- Left Building -->
    <rect x="0" y="60" width="18" height="60" fill="#2563eb" rx="2"/>
    <rect x="4" y="68" width="4" height="4" fill="#93c5fd" rx="0.5"/>
    <rect x="11" y="68" width="4" height="4" fill="#93c5fd" rx="0.5"/>
    <rect x="4" y="76" width="4" height="4" fill="#93c5fd" rx="0.5"/>
    <rect x="11" y="76" width="4" height="4" fill="#93c5fd" rx="0.5"/>
    <rect x="4" y="84" width="4" height="4" fill="#93c5fd" rx="0.5"/>
    <rect x="11" y="84" width="4" height="4" fill="#93c5fd" rx="0.5"/>
    <rect x="4" y="92" width="4" height="4" fill="#93c5fd" rx="0.5"/>
    <rect x="11" y="92" width="4" height="4" fill="#93c5fd" rx="0.5"/>
    <rect x="4" y="100" width="4" height="4" fill="#93c5fd" rx="0.5"/>
    <rect x="11" y="100" width="4" height="4" fill="#93c5fd" rx="0.5"/>
    <rect x="4" y="108" width="4" height="4" fill="#93c5fd" rx="0.5"/>
    <rect x="11" y="108" width="4" height="4" fill="#93c5fd" rx="0.5"/>
    
    <!-- Right Building -->
    <rect x="82" y="50" width="18" height="70" fill="#2563eb" rx="2"/>
    <rect x="86" y="58" width="4" height="4" fill="#93c5fd" rx="0.5"/>
    <rect x="93" y="58" width="4" height="4" fill="#93c5fd" rx="0.5"/>
    <rect x="86" y="66" width="4" height="4" fill="#93c5fd" rx="0.5"/>
    <rect x="93" y="66" width="4" height="4" fill="#93c5fd" rx="0.5"/>
    <rect x="86" y="74" width="4" height="4" fill="#93c5fd" rx="0.5"/>
    <rect x="93" y="74" width="4" height="4" fill="#93c5fd" rx="0.5"/>
    <rect x="86" y="82" width="4" height="4" fill="#93c5fd" rx="0.5"/>
    <rect x="93" y="82" width="4" height="4" fill="#93c5fd" rx="0.5"/>
    <rect x="86" y="90" width="4" height="4" fill="#93c5fd" rx="0.5"/>
    <rect x="93" y="90" width="4" height="4" fill="#93c5fd" rx="0.5"/>
    <rect x="86" y="98" width="4" height="4" fill="#93c5fd" rx="0.5"/>
    <rect x="93" y="98" width="4" height="4" fill="#93c5fd" rx="0.5"/>
    <rect x="86" y="106" width="4" height="4" fill="#93c5fd" rx="0.5"/>
    <rect x="93" y="106" width="4" height="4" fill="#93c5fd" rx="0.5"/>
    
    <!-- Roof accent -->
    <path d="M 20 30 L 50 15 L 80 30 Z" fill="#1e3a8a"/>
  </g>
  
  <!-- Company Name Arc -->
  <text x="100" y="170" font-family="Arial, sans-serif" font-size="16" font-weight="bold" fill="#1e40af" text-anchor="middle">RIVERHEDGE</text>
  <text x="100" y="188" font-family="Arial, sans-serif" font-size="12" fill="#64748b" text-anchor="middle">PARTNERS LIMITED</text>
</svg>

